<svg xmlns="http://www.w3.org/2000/svg" width="24" height="24" viewBox="0 0 24 24"><defs><style>.a,.b{opacity:0;}.b,.c{fill:#2c66d5;}</style></defs><g class="a"><rect class="b" width="24" height="24"/><path class="c" d="M-90.327,83.681l5.293-5.293a1,1,0,0,0,0-1.414,1,1,0,0,0-1.414,0l-5.293,5.293-5.293-5.293a1,1,0,0,0-1.414,0,1,1,0,0,0,0,1.414l5.293,5.293-5.293,5.293a1,1,0,0,0,0,1.414,1,1,0,0,0,.707.293,1,1,0,0,0,.707-.293l5.293-5.293,5.293,5.293a1,1,0,0,0,.707.293,1,1,0,0,0,.707-.293,1,1,0,0,0,0-1.414Z" transform="translate(103.741 -71.681)"/></g></svg>