<svg xmlns="http://www.w3.org/2000/svg" width="24" height="24" viewBox="0 0 24 24"><defs><style>.a,.b{fill:#fff;}.a{opacity:0;}</style></defs><g transform="translate(24 24) rotate(180)"><rect class="a" width="24" height="24"/><path class="b" d="M-48.392,82.681H-59.978l5.293-5.293a1,1,0,0,0,0-1.414,1,1,0,0,0-1.414,0l-7,7a1.01,1.01,0,0,0-.216.325,1,1,0,0,0,0,.764,1,1,0,0,0,.216.325l7,7a1,1,0,0,0,.707.293,1,1,0,0,0,.707-.293,1,1,0,0,0,0-1.414l-5.293-5.293h11.586a1,1,0,0,0,1-1A1,1,0,0,0-48.392,82.681Z" transform="translate(67.392 -71.681)"/></g></svg>